<mxfile host="app.diagrams.net" modified="2023-01-24T12:19:20.140Z" agent="5.0 (Windows NT 10.0; Win64; x64) AppleWebKit/537.36 (KHTML, like Gecko) Chrome/109.0.0.0 Safari/537.36" etag="yyGMQjWIOpY-h4UNZ8A4" version="20.8.10" type="github">
  <diagram id="C5RBs43oDa-KdzZeNtuy" name="Page-1">
    <mxGraphModel dx="1877" dy="541" grid="1" gridSize="10" guides="1" tooltips="1" connect="1" arrows="1" fold="1" page="1" pageScale="1" pageWidth="827" pageHeight="1169" math="0" shadow="0">
      <root>
        <mxCell id="WIyWlLk6GJQsqaUBKTNV-0" />
        <mxCell id="WIyWlLk6GJQsqaUBKTNV-1" parent="WIyWlLk6GJQsqaUBKTNV-0" />
        <mxCell id="V8F6Q09voxlE7tykZHno-7" style="edgeStyle=orthogonalEdgeStyle;rounded=0;orthogonalLoop=1;jettySize=auto;html=1;entryX=0.5;entryY=0;entryDx=0;entryDy=0;" edge="1" parent="WIyWlLk6GJQsqaUBKTNV-1" source="V8F6Q09voxlE7tykZHno-0" target="V8F6Q09voxlE7tykZHno-1">
          <mxGeometry relative="1" as="geometry" />
        </mxCell>
        <mxCell id="V8F6Q09voxlE7tykZHno-0" value="Start" style="ellipse;whiteSpace=wrap;html=1;" vertex="1" parent="WIyWlLk6GJQsqaUBKTNV-1">
          <mxGeometry x="20" y="30" width="120" height="80" as="geometry" />
        </mxCell>
        <mxCell id="V8F6Q09voxlE7tykZHno-8" style="edgeStyle=orthogonalEdgeStyle;rounded=0;orthogonalLoop=1;jettySize=auto;html=1;" edge="1" parent="WIyWlLk6GJQsqaUBKTNV-1" source="V8F6Q09voxlE7tykZHno-1" target="V8F6Q09voxlE7tykZHno-3">
          <mxGeometry relative="1" as="geometry">
            <mxPoint x="80" y="460" as="targetPoint" />
          </mxGeometry>
        </mxCell>
        <mxCell id="V8F6Q09voxlE7tykZHno-10" value="" style="edgeStyle=orthogonalEdgeStyle;rounded=0;orthogonalLoop=1;jettySize=auto;html=1;" edge="1" parent="WIyWlLk6GJQsqaUBKTNV-1" source="V8F6Q09voxlE7tykZHno-1" target="V8F6Q09voxlE7tykZHno-2">
          <mxGeometry relative="1" as="geometry" />
        </mxCell>
        <mxCell id="V8F6Q09voxlE7tykZHno-1" value="firstnum = 0&lt;br&gt;secondnum = 0&amp;nbsp;&lt;br&gt;sum = 0&amp;nbsp;&lt;br&gt;ave = 0" style="shape=hexagon;perimeter=hexagonPerimeter2;whiteSpace=wrap;html=1;fixedSize=1;" vertex="1" parent="WIyWlLk6GJQsqaUBKTNV-1">
          <mxGeometry x="20" y="140" width="120" height="80" as="geometry" />
        </mxCell>
        <mxCell id="V8F6Q09voxlE7tykZHno-2" value="Input&lt;br&gt;get firstnum()&lt;br&gt;get secondnum()" style="shape=parallelogram;perimeter=parallelogramPerimeter;whiteSpace=wrap;html=1;fixedSize=1;" vertex="1" parent="WIyWlLk6GJQsqaUBKTNV-1">
          <mxGeometry x="10" y="270" width="140" height="60" as="geometry" />
        </mxCell>
        <mxCell id="V8F6Q09voxlE7tykZHno-11" value="" style="edgeStyle=orthogonalEdgeStyle;rounded=0;orthogonalLoop=1;jettySize=auto;html=1;" edge="1" parent="WIyWlLk6GJQsqaUBKTNV-1" source="V8F6Q09voxlE7tykZHno-3" target="V8F6Q09voxlE7tykZHno-4">
          <mxGeometry relative="1" as="geometry" />
        </mxCell>
        <mxCell id="V8F6Q09voxlE7tykZHno-3" value="sum = firstnum + secondnum" style="rounded=0;whiteSpace=wrap;html=1;" vertex="1" parent="WIyWlLk6GJQsqaUBKTNV-1">
          <mxGeometry x="20" y="370" width="120" height="60" as="geometry" />
        </mxCell>
        <mxCell id="V8F6Q09voxlE7tykZHno-9" style="edgeStyle=orthogonalEdgeStyle;rounded=0;orthogonalLoop=1;jettySize=auto;html=1;exitX=0.5;exitY=1;exitDx=0;exitDy=0;entryX=0.5;entryY=0;entryDx=0;entryDy=0;" edge="1" parent="WIyWlLk6GJQsqaUBKTNV-1" source="V8F6Q09voxlE7tykZHno-4">
          <mxGeometry relative="1" as="geometry">
            <mxPoint x="80" y="675" as="targetPoint" />
          </mxGeometry>
        </mxCell>
        <mxCell id="V8F6Q09voxlE7tykZHno-4" value="OUTPUT&lt;br&gt;display ave" style="shape=parallelogram;perimeter=parallelogramPerimeter;whiteSpace=wrap;html=1;fixedSize=1;" vertex="1" parent="WIyWlLk6GJQsqaUBKTNV-1">
          <mxGeometry x="20" y="585" width="120" height="60" as="geometry" />
        </mxCell>
        <mxCell id="V8F6Q09voxlE7tykZHno-5" value="End" style="ellipse;whiteSpace=wrap;html=1;" vertex="1" parent="WIyWlLk6GJQsqaUBKTNV-1">
          <mxGeometry x="20" y="675" width="120" height="80" as="geometry" />
        </mxCell>
        <mxCell id="V8F6Q09voxlE7tykZHno-12" value="ave = sum/2" style="rounded=0;whiteSpace=wrap;html=1;" vertex="1" parent="WIyWlLk6GJQsqaUBKTNV-1">
          <mxGeometry x="20" y="480" width="120" height="60" as="geometry" />
        </mxCell>
        <mxCell id="V8F6Q09voxlE7tykZHno-14" value="FLOWCHART 1 :&amp;nbsp; Average" style="text;html=1;align=center;verticalAlign=middle;resizable=0;points=[];autosize=1;strokeColor=none;fillColor=none;" vertex="1" parent="WIyWlLk6GJQsqaUBKTNV-1">
          <mxGeometry x="-37" width="170" height="30" as="geometry" />
        </mxCell>
      </root>
    </mxGraphModel>
  </diagram>
</mxfile>
